<svg width="96" height="27" viewBox="0 0 96 27" fill="none" xmlns="http://www.w3.org/2000/svg">
<path d="M0 18.0833V0.583332H4.55V2.50833C5.17222 1.69167 5.94028 1.06944 6.85417 0.641666C7.7875 0.213889 8.75972 0 9.77083 0C10.8014 0 11.7736 0.213889 12.6875 0.641666C13.6014 1.06944 14.3694 1.69167 14.9917 2.50833C15.6722 1.69167 16.5181 1.06944 17.5292 0.641666C18.5403 0.213889 19.6389 0 20.825 0C22.0694 0 23.2361 0.291666 24.325 0.874999C25.4139 1.43889 26.2986 2.275 26.9792 3.38333C27.6597 4.47222 28 5.80417 28 7.37917V18.0833H22.925V8.10833C22.925 7.175 22.6528 6.34861 22.1083 5.62917C21.5639 4.90972 20.7764 4.55 19.7458 4.55C19.2014 4.55 18.6764 4.68611 18.1708 4.95833C17.6847 5.21111 17.2861 5.6 16.975 6.125C16.6833 6.63055 16.5375 7.27222 16.5375 8.05V18.0833H11.4625V8.10833C11.4625 7.48611 11.3361 6.90278 11.0833 6.35833C10.85 5.81389 10.4903 5.37639 10.0042 5.04583C9.5375 4.71528 8.96389 4.55 8.28333 4.55C7.73889 4.55 7.21389 4.68611 6.70833 4.95833C6.22222 5.21111 5.82361 5.6 5.5125 6.125C5.22083 6.63055 5.075 7.27222 5.075 8.05V18.0833H0Z" fill="black"/>
<path d="M30.2012 26.8333L36.0345 15.1083L28.8887 0.583332H34.4887L37.5803 7C37.8526 7.58333 38.0859 8.11805 38.2803 8.60417C38.4942 9.07083 38.6692 9.52778 38.8053 9.975C38.9609 9.52778 39.1456 9.07083 39.3595 8.60417C39.5734 8.11805 39.8262 7.58333 40.1178 7L43.2678 0.583332H48.6637L35.6553 26.8333H30.2012Z" fill="black"/>
<path d="M51.4637 18.6667C50.8609 18.6667 50.3262 18.5208 49.8595 18.2292C49.3928 17.9569 49.0137 17.5875 48.722 17.1208C48.4498 16.6347 48.3137 16.1 48.3137 15.5167C48.3137 14.9139 48.4498 14.3792 48.722 13.9125C49.0137 13.4458 49.3928 13.0764 49.8595 12.8042C50.3262 12.5125 50.8609 12.3667 51.4637 12.3667C52.0665 12.3667 52.6012 12.5125 53.0678 12.8042C53.554 13.0764 53.9331 13.4458 54.2053 13.9125C54.4776 14.3792 54.6137 14.9139 54.6137 15.5167C54.6137 16.1 54.4776 16.6347 54.2053 17.1208C53.9331 17.5875 53.554 17.9569 53.0678 18.2292C52.6012 18.5208 52.0665 18.6667 51.4637 18.6667Z" fill="#F6821F"/>
<path d="M65.625 18.55C64.4194 18.55 63.2819 18.3167 62.2125 17.85C61.1625 17.3639 60.2389 16.7028 59.4417 15.8667C58.6444 15.0111 58.0125 14.0292 57.5458 12.9208C57.0986 11.7931 56.875 10.5972 56.875 9.33333C56.875 8.06944 57.0986 6.88333 57.5458 5.775C58.0125 4.64722 58.6444 3.66528 59.4417 2.82917C60.2389 1.97361 61.1625 1.3125 62.2125 0.845833C63.2819 0.359722 64.4194 0.116666 65.625 0.116666C66.7528 0.116666 67.7833 0.320833 68.7167 0.729166C69.65 1.11806 70.4472 1.6625 71.1083 2.3625V0.583332H75.4833V18.0833H71.1083V16.3042C70.4472 17.0042 69.65 17.5583 68.7167 17.9667C67.7833 18.3556 66.7528 18.55 65.625 18.55ZM66.2375 14.0875C67.0931 14.0875 67.8708 13.8736 68.5708 13.4458C69.2708 13.0181 69.825 12.4444 70.2333 11.725C70.6611 11.0056 70.875 10.2083 70.875 9.33333C70.875 8.45833 70.6611 7.66111 70.2333 6.94167C69.825 6.22222 69.2708 5.64861 68.5708 5.22083C67.8708 4.79306 67.0931 4.57917 66.2375 4.57917C65.3819 4.57917 64.6042 4.79306 63.9042 5.22083C63.2042 5.64861 62.6403 6.22222 62.2125 6.94167C61.8042 7.66111 61.6 8.45833 61.6 9.33333C61.6 10.2083 61.8042 11.0056 62.2125 11.725C62.6403 12.4444 63.2042 13.0181 63.9042 13.4458C64.6042 13.8736 65.3819 14.0875 66.2375 14.0875Z" fill="black"/>
<path d="M77.7492 18.0833L83.7867 8.95417L78.245 0.583332H83.8451L85.5367 3.26667C85.7506 3.59722 85.9548 3.94722 86.1492 4.31667C86.3631 4.68611 86.5673 5.06528 86.7617 5.45417C86.9756 5.06528 87.1798 4.69583 87.3742 4.34583C87.5881 3.97639 87.802 3.61667 88.0159 3.26667L89.6784 0.583332H95.2201L89.6492 8.95417L95.7159 18.0833H90.0575L87.6951 14.2625C87.5201 13.9903 87.3451 13.7083 87.1701 13.4167C86.9951 13.1056 86.8298 12.8042 86.6742 12.5125C86.5187 12.8042 86.3534 13.1056 86.1784 13.4167C86.0034 13.7083 85.8284 13.9903 85.6534 14.2625L83.2909 18.0833H77.7492Z" fill="black"/>
</svg>
